<svg id="Capa_2" data-name="Capa 2" xmlns="http://www.w3.org/2000/svg" width="171.397" height="33.499" viewBox="0 0 171.397 33.499">
  <g id="Слой_1" data-name="Слой 1">
    <path id="Trazado_40902" data-name="Trazado 40902" d="M13.684,13.277a1.3,1.3,0,0,1-1.456-1.389A1.3,1.3,0,0,1,13.684,10.5H18.7c1.524,0,2.168.576,2.168,2.439,0,5.826-2.1,11.584-10.3,11.584C3.624,24.522,0,18.527,0,12.261S3.455,0,11.008,0c4.945,0,8.264,2.574,8.264,3.861A1.389,1.389,0,0,1,17.85,5.284c-1.49,0-2.71-2.71-7.045-2.71-5.385,0-7.621,5.081-7.621,9.687s2.134,9.687,7.756,9.687c4.674,0,6.943-4,6.943-7.248V13.277Z" fill="#848485"/>
    <path id="Trazado_40903" data-name="Trazado 40903" d="M34.7,10.589a1.49,1.49,0,0,1,2.981,0v1.524h.068C38.426,10.758,40.085,9,41.813,9a1.517,1.517,0,0,1,1.66,1.524c0,.847-.61,1.389-1.863,1.626-1.761.3-3.929,1.626-3.929,5.114v8.569a1.49,1.49,0,0,1-2.981,0Z" transform="translate(-11.194 -2.9)" fill="#848485"/>
    <path id="Trazado_40904" data-name="Trazado 40904" d="M50.45,10.64a1.49,1.49,0,0,1,2.981,0v9.552c0,3.082,1.355,4.742,4.166,4.742s4.166-1.626,4.166-4.708V10.64a1.49,1.49,0,0,1,2.981,0v9.653c0,5.284-3.523,7.181-7.147,7.181s-7.147-1.9-7.147-7.181Z" transform="translate(-16.274 -2.952)" fill="#848485"/>
    <path id="Trazado_40905" data-name="Trazado 40905" d="M77.55,10.592a1.49,1.49,0,0,1,2.981,0v.881H80.6C81.445,9.847,83.037,9,85.408,9c4.877,0,7.689,4.437,7.689,9.213s-2.811,9.213-7.689,9.213a5.887,5.887,0,0,1-4.81-2.439h-.034v7.96a1.49,1.49,0,0,1-2.981,0Zm7.621,14.226c3.658,0,4.945-3.59,4.945-6.639s-1.287-6.639-4.945-6.639-4.945,3.59-4.945,6.639,1.287,6.673,4.945,6.673Z" transform="translate(-25.017 -2.903)" fill="#848485"/>
    <path id="Trazado_40906" data-name="Trazado 40906" d="M111.926,9c5.081,0,7.926,4.437,7.926,9.213s-2.845,9.213-7.926,9.213S104,22.989,104,18.213,106.845,9,111.926,9Zm0,15.851c3.658,0,4.945-3.59,4.945-6.639s-1.287-6.639-4.945-6.639-4.945,3.59-4.945,6.639S108.268,24.851,111.926,24.851Z" transform="translate(-33.549 -2.903)" fill="#848485"/>
    <circle id="Elipse_1599" data-name="Elipse 1599" cx="3.313" cy="3.313" r="3.313" transform="translate(88.05 12.221)" fill="#b6b6b7"/>
    <path id="Trazado_40907" data-name="Trazado 40907" d="M184.11,22.7a6.124,6.124,0,0,1,0-12.248,6.232,6.232,0,0,1,6.253,6.1A6.232,6.232,0,0,1,184.11,22.7Zm-.047-15.953a9.809,9.809,0,0,0-9.822,9.409V33.6a2.08,2.08,0,0,0,2.08,2.073,2.032,2.032,0,0,0,2.066-2.1V24.091a9.944,9.944,0,0,0,5.582,1.985,9.667,9.667,0,1,0,.095-19.327Z" transform="translate(-56.207 -2.176)" fill="#017934" fill-rule="evenodd"/>
    <path id="Trazado_40908" data-name="Trazado 40908" d="M147.189,18.949a5.988,5.988,0,0,0,5.419,3.631,7.106,7.106,0,0,0,4.173-1.246c2.134-1.47,3.929,1.2,2.31,2.561a10.757,10.757,0,0,1-6.557,2.188,9.484,9.484,0,0,1-9.375-9.721,9.66,9.66,0,0,1,9.375-9.613,9.3,9.3,0,0,1,8.264,4.694c1.355,2.439,1.761,6.225-1.89,6.239H147.846c-1.036,0-.833.738-.677,1.267m5.487-8.806a6.1,6.1,0,0,0-5.338,3.224A.677.677,0,0,0,148,14.424h9.281c.616,0,.725-.63.434-1.185a5.636,5.636,0,0,0-5.033-3.1Z" transform="translate(-46.18 -2.177)" fill="#017934" fill-rule="evenodd"/>
    <path id="Trazado_40909" data-name="Trazado 40909" d="M220.148,20.21V15.678a4.532,4.532,0,0,0-9.057,0V20.2a2.141,2.141,0,0,1-2.107,2.127A2.1,2.1,0,0,1,206.85,20.2V16c0-6.225,4.6-9.247,8.739-9.247a8.346,8.346,0,0,1,6.645,3.177,8.549,8.549,0,0,1,6.659-3.17c5.155,0,9.043,4.471,9.22,9.646.183,4.654-1.687,12.417-11.611,16.3a2.107,2.107,0,0,1-2.777-2.12,2.229,2.229,0,0,1,1.734-2.032A11.557,11.557,0,0,0,234.1,16.112c-.42-2.832-2.093-4.9-5.135-4.952a4.532,4.532,0,0,0-4.681,4.525v4.532a2.073,2.073,0,0,1-2.086,2.12,2.032,2.032,0,0,1-2.073-2.12" transform="translate(-66.727 -2.177)" fill="#7ad300" fill-rule="evenodd"/>
  </g>
</svg>
