<svg width="48" height="48" viewBox="0 0 48 48" fill="none" xmlns="http://www.w3.org/2000/svg"><path d="m26.258 20.753-1.611 2.82h7.18c.706 0 1.145-.77.79-1.384l-4.406-7.712-.815-1.417a.912.912 0 0 0-1.585 0l-.808 1.417-3.584 6.27-1.967-3.449h2.316l1.611-2.821h-7.18c-.706 0-1.146.77-.79 1.384l4.406 7.706-.007.007h.007v-.007.007l.808 1.417a.912.912 0 0 0 1.585 0l.809-1.417 3.584-6.27 1.973 3.449h-2.316Z" fill="#084564"/><path d="M11.858 30.326c0 1.365-.919 2.26-2.323 2.26h-1.92v1.966H6.54v-6.485h2.995c1.404 0 2.323.901 2.323 2.26Zm-1.068 0c0-.77-.524-1.266-1.313-1.266h-1.87v2.547h1.87c.79 0 1.313-.503 1.313-1.28Z" fill="#084564"/><path d="M14.911 28.067h1.074v6.485h-1.074v-6.485Z" fill="#084564"/><path d="M24.79 34.552h-1.294l-.958-1.398-.724-1.103-.738 1.103-.957 1.398h-1.275l2.264-3.298-2.173-3.187h1.268l.88 1.306.73 1.123.745-1.123.88-1.306h1.254l-2.186 3.187 2.283 3.298Z" fill="#084564"/><path d="M32.565 33.285h-.75v1.267H30.74v-1.267h-3.545l-.13-1 3.513-4.218h1.23v4.219h.75v.999h.006Zm-4.295-.993h2.47v-2.939l-2.47 2.94Z" fill="#084564"/><path d="M41.473 31.313c0 1.946-1.3 3.245-3.241 3.245h-2.458v-6.485h2.458c1.94-.006 3.24 1.293 3.24 3.24Zm-1.08 0c0-1.333-.88-2.24-2.155-2.24h-1.384v4.486h1.378c1.287-.006 2.16-.914 2.16-2.246Z" fill="#084564"/></svg>